<?xml version="1.0" encoding="UTF-8"?>
<svg width="24px" height="24px" viewBox="0 0 24 24" version="1.1" xmlns="http://www.w3.org/2000/svg">
    <title>切片</title>
    <g id="UI-Layouts" stroke="none" stroke-width="1" fill="none" fill-rule="evenodd">
        <g id="1-8-2.-反饋組件Toast---黑色" transform="translate(-132.000000, -159.000000)" fill-rule="nonzero">
            <g id="Toast/Black/Sucess" transform="translate(120.000000, 147.000000)">
                <g id="Icon/Verified" transform="translate(12.000000, 12.000000)">
                    <path d="M12,0 C5.35384616,0 0,5.35384616 0,12 C0,18.6461538 5.35384616,24 12,24 C18.6461538,24 24,18.6461538 24,12 C24,5.35384614 18.6461538,0 12,0" id="路径" fill="#00BEFF"></path>
                    <path d="M15.3230769,8.67692309 L10.7076923,13.2923077 L8.67692309,11.2615385 C8.30769233,11.0769231 7.75384615,11.0769231 7.38461539,11.2615385 C7.01538464,11.6307692 7.01538464,12.3692308 7.38461539,12.7384615 L9.96923078,15.3230769 C10.3384615,15.6923077 10.8923077,15.6923077 11.2615385,15.3230769 L16.6153846,9.96923078 C16.9846154,9.60000002 16.9846154,9.04615384 16.6153846,8.67692309 C16.2461538,8.30769233 15.6923077,8.30769233 15.3230769,8.67692309" id="路径" fill="#FFFFFF"></path>
                </g>
            </g>
        </g>
    </g>
</svg>
