<?xml version="1.0" encoding="UTF-8"?>
<svg width="24px" height="24px" viewBox="0 0 24 24" version="1.1" xmlns="http://www.w3.org/2000/svg">
    <title>切片</title>
    <g id="UI-Layouts" stroke="none" stroke-width="1" fill="none" fill-rule="evenodd">
        <g id="1-8-2.-反饋組件Toast---黑色" transform="translate(-132.000000, -355.000000)" fill-rule="nonzero">
            <g id="Toast/White/Fail" transform="translate(120.000000, 343.000000)">
                <g id="Icon/Verified" transform="translate(12.000000, 12.000000)">
                    <path d="M12,0 C5.35384616,0 0,5.35384616 0,12 C0,18.6461538 5.35384616,24 12,24 C18.6461538,24 24,18.6461538 24,12 C24,5.35384614 18.6461538,0 12,0" id="路径" fill="#FF7171"></path>
                    <path d="M14.8996094,7.89469056 C15.2362048,7.63282002 15.7234066,7.65597967 16.0333993,7.96457896 C16.3692247,8.29889486 16.3699053,8.84160728 16.0349194,9.17676107 L16.0349194,9.17676107 L13.2122857,11.9992857 L16.0349194,14.8232389 C16.3699053,15.1583927 16.3692247,15.7011051 16.0333993,16.035421 C15.7234066,16.3440203 15.2362048,16.36718 14.8996094,16.1053094 L14.818788,16.0339039 L11.9992857,13.2132857 L9.18121204,16.0339039 L9.10039056,16.1053094 C8.76379524,16.36718 8.27659343,16.3440203 7.96660072,16.035421 C7.63077528,15.7011051 7.63009468,15.1583927 7.96508055,14.8232389 L7.96508055,14.8232389 L10.7862857,11.9992857 L7.96508055,9.17676107 C7.63009468,8.84160728 7.63077528,8.29889486 7.96660072,7.96457896 C8.27659343,7.65597967 8.76379524,7.63282002 9.10039056,7.89469056 L9.18121204,7.96609609 L11.9992857,10.7852857 L14.818788,7.96609609 Z" id="形状结合" fill="#FFFFFF"></path>
                </g>
            </g>
        </g>
    </g>
</svg>
